# xmcd
#
# Track frame offsets: 
#        150
#        77958
#        157562
#
# Disc length: 3005 seconds
#
# Revision: 2
# Processed by: cddbd v1.5.2PL0 Copyright (c) Steve Scherf et al.
# Submitted via: ExactAudioCopy v0.99pb3
#
DISCID=120bbb03
DTITLE=Tangerine Dream - In Search Of Hades 09 of 18
DYEAR=2019
DGENRE=Electronic
TTITLE0=Rubycon: Part 1
TTITLE1=Rubycon: Part 2
TTITLE2=Rubycon [Extended Introduction]
EXTD=
EXTT0=
EXTT1=
EXTT2=
PLAYORDER=
